<svg width="411" height="47" viewBox="0 0 411 47" fill="none" xmlns="http://www.w3.org/2000/svg">
<path d="M13.7894 0C13.7894 0 -17.2367 21.6923 13.7894 44.7102C13.7894 44.8308 47.3907 27.8385 13.7894 0Z" transform="translate(17.0488 1.08459)" fill="#203353"/>
<path d="M14.5956 46.8795L14.1051 46.5179C4.53977 39.4077 -0.120275 31.6949 0.00235806 23.6205C0.247623 10.2436 13.6146 0.723077 14.2277 0.361538L14.7183 0L15.2088 0.482051C26.2458 9.64102 31.3963 18.559 30.4153 27.2359C28.9437 39.5282 15.6993 46.3974 15.0862 46.759L14.5956 46.8795ZM14.5956 2.28974C12.0204 4.21795 1.96448 12.7744 1.71922 23.741C1.59658 31.0923 6.01136 38.2026 14.7183 44.8308C17.1709 43.5051 27.3494 37.1179 28.5758 26.9949C29.4342 19.1615 24.7742 10.8462 14.5956 2.28974Z" transform="translate(16.2402)" fill="white"/>
<path d="M0.632815 0.0491132C0.632815 0.0491132 -6.60251 32.5876 27.8573 29.4542C27.8573 29.5748 39.7526 -1.39704 0.632815 0.0491132Z" transform="translate(1.01758 13.8098)" fill="#203353"/>
<path d="M24.4608 31.5054C16.1217 31.5054 9.74484 29.2157 5.57533 24.5157C-2.51843 15.4772 0.547386 1.37724 0.670019 0.774681L0.792652 0.0516045H1.52845C14.4049 -0.430447 23.2344 2.46186 27.8945 8.84904C34.5166 17.8875 29.8566 30.3003 29.734 30.7824L29.4887 31.2644H28.8755C27.4039 31.3849 25.9324 31.5054 24.4608 31.5054ZM2.38688 1.73878C1.89635 4.63109 0.547386 16.0798 7.04692 23.3106C11.4617 28.1311 18.5744 30.3003 28.2624 29.5772C28.9982 27.167 31.8187 17.0439 26.5455 9.81314C22.2534 4.14904 14.1596 1.49776 2.38688 1.73878Z" transform="translate(0 12.9637)" fill="white"/>
<path d="M28.9794 0.0491132C28.9794 0.0491132 36.2148 32.5876 1.75497 29.4542C1.63234 29.5748 -10.1404 -1.39704 28.9794 0.0491132Z" transform="translate(31.043 13.8098)" fill="#203353"/>
<path d="M6.98853 31.6243C5.51693 31.6243 4.04534 31.5038 2.45112 31.3833H1.83795L1.59269 30.9012C1.59269 30.2987 -3.06736 17.8858 3.55481 8.84738C8.21485 2.58072 17.0444 -0.432104 29.9208 0.0499467H30.6566L30.7793 0.773024C30.9019 1.37559 33.9677 15.5961 25.874 24.514C21.7044 29.214 15.3275 31.6243 6.98853 31.6243ZM3.30955 29.6961C12.9975 30.4192 20.1102 28.3705 24.525 23.4294C31.0245 16.1987 29.6756 4.74995 29.185 1.85764C17.4123 1.4961 9.31855 4.26789 5.14904 9.932C-0.246802 17.1628 2.45112 27.2858 3.30955 29.6961Z" transform="translate(30.1035 12.845)" fill="white"/>
<path d="M0.38758 0.0277366C0.38758 0.0277366 -4.0272 19.7918 16.943 17.8636C16.943 17.8636 24.0557 -0.815853 0.38758 0.0277366Z" transform="translate(14.3848 28.0518)" fill="#203353"/>
<path d="M15.2666 19.8071C10.1161 19.8071 6.19182 18.3609 3.4939 15.4686C-1.53404 9.92504 0.305447 1.12761 0.42808 0.766071L0.550713 0.0429933H1.28651C9.25763 -0.318545 14.7761 1.60966 17.5967 5.46607C21.7662 11.1302 18.823 18.843 18.7003 19.084L18.5777 19.5661H17.9646C17.1061 19.8071 16.1251 19.8071 15.2666 19.8071ZM2.14494 1.73017C1.77704 3.77889 1.28651 10.1661 4.96549 14.2635C7.54078 17.0353 11.7103 18.3609 17.2288 17.8789C17.7193 16.1917 19.0682 10.5276 16.1251 6.43017C13.795 3.17633 9.135 1.60966 2.14494 1.73017Z" transform="translate(13.3613 27.1929)" fill="white"/>
<path d="M17.5903 0.0358526C17.5903 0.0358526 22.0051 19.7999 1.03493 17.8717C1.03493 17.8717 -6.20039 -0.92825 17.5903 0.0358526Z" transform="translate(30.1699 28.0437)" fill="#203353"/>
<path d="M4.62646 19.6888C3.76804 19.6888 2.78697 19.6888 1.92854 19.5683H1.31538L1.07012 19.0862C0.947484 18.7247 -1.87307 11.0119 2.17381 5.46827C4.99436 1.49135 10.5128 -0.316346 18.484 0.0451923H19.2198L19.3424 0.76827C19.465 1.12981 21.3045 9.92724 16.2766 15.4708C13.7013 18.2426 9.77704 19.6888 4.62646 19.6888ZM2.54171 17.8811C8.18281 18.2426 12.3523 17.0375 14.805 14.2657C18.484 10.1683 17.8708 3.9016 17.6255 1.73237C10.7581 1.61186 5.97542 3.17852 3.6454 6.43237C0.702217 10.5298 2.05118 16.0734 2.54171 17.8811Z" transform="translate(29.2754 27.1907)" fill="white"/>
<path d="M13.1217 9.15897C13.6122 9.88205 13.9801 10.7256 13.9801 11.6897C13.9801 13.1359 13.4896 14.1 12.3859 14.9436C11.2822 15.6667 9.81062 16.0282 7.72586 16.0282H0V0H7.35796C9.19745 0 10.669 0.361538 11.6501 1.08461C12.6312 1.80769 13.1217 2.89231 13.1217 4.09743C13.1217 4.94102 12.8764 5.6641 12.5085 6.26666C12.1406 6.98974 11.6501 7.47179 10.9143 7.71282C11.8954 8.07436 12.6312 8.4359 13.1217 9.15897ZM2.33002 1.92821V7.11025H7.1127C8.33903 7.11025 9.19745 6.86923 9.93325 6.50769C10.669 6.14615 10.9143 5.42307 10.9143 4.57949C10.9143 3.7359 10.5464 3.13333 9.93325 2.65128C9.32008 2.16923 8.33903 2.04872 7.1127 2.04872H2.33002V1.92821ZM10.669 13.6179C11.2822 13.1359 11.6501 12.5333 11.6501 11.5692C11.6501 9.76154 10.3011 8.91795 7.72586 8.91795H2.33002V14.2205H7.72586C8.95219 14.2205 9.93325 13.9795 10.669 13.6179Z" transform="translate(82.3418 18.7999)" fill="#203353"/>
<path d="M11.8954 14.1V16.1487H0V0H11.5275V2.04872H2.33002V6.98974H10.5464V8.91795H2.33002V14.1H11.8954Z" transform="translate(102.699 18.7999)" fill="#203353"/>
<path d="M12.9991 12.0513H4.29214L2.45265 16.0282H0L7.35796 0H9.68798L17.0459 16.0282H14.5933L12.9991 12.0513ZM12.1406 10.2436L8.58429 2.41026L5.02794 10.2436H12.1406Z" transform="translate(118.52 18.7999)" fill="#203353"/>
<path d="M5.6411 2.04872H0V0H13.4896V2.04872H7.84848V16.0282H5.51847V2.04872H5.6411Z" transform="translate(137.773 18.7999)" fill="#203353"/>
<path d="M12.9991 12.0513H4.29213L2.45265 16.0282H0L7.35795 0H9.68798L17.0459 16.0282H14.5933L12.9991 12.0513ZM12.1406 10.2436L8.58428 2.41026L5.02794 10.2436H12.1406Z" transform="translate(153.225 18.7999)" fill="#203353"/>
<path d="M12.9991 12.0513H4.29214L2.45265 16.0282H0L7.35796 0H9.68797L17.0459 16.0282H14.5933L12.9991 12.0513ZM12.1406 10.2436L8.58429 2.41026L5.02795 10.2436H12.1406Z" transform="translate(182.166 18.7999)" fill="#203353"/>
<path d="M14.1028 0V16.0282H12.1406L2.33003 4.09743V16.0282H0V0H1.96213L11.7727 11.9308V0H14.1028Z" transform="translate(204.484 18.7999)" fill="#203353"/>
<path d="M5.64111 2.04872H0V0H13.4896V2.04872H7.97112V16.0282H5.64111V2.04872Z" transform="translate(223.861 18.7999)" fill="#203353"/>
<path d="M4.16952 15.3051C2.82056 14.582 1.8395 13.6179 1.10371 12.4128C0.367909 11.2077 0 9.76154 0 8.19487C0 6.6282 0.367909 5.30256 1.10371 3.97692C1.8395 2.77179 2.9432 1.68718 4.16952 1.08461C5.51848 0.361538 6.99006 0 8.58429 0C10.1785 0 11.6501 0.361538 12.9991 1.08461C14.348 1.80769 15.3291 2.77179 16.0649 3.97692C16.8007 5.18205 17.1686 6.6282 17.1686 8.19487C17.1686 9.76154 16.8007 11.2077 16.0649 12.4128C15.3291 13.6179 14.2254 14.582 12.9991 15.3051C11.7727 16.0282 10.1785 16.3897 8.58429 16.3897C6.99006 16.3897 5.51848 16.0282 4.16952 15.3051ZM11.8954 13.4974C12.8764 13.0154 13.6122 12.1718 14.1028 11.3282C14.5933 10.3641 14.9612 9.4 14.9612 8.19487C14.9612 6.98974 14.7159 6.02564 14.1028 5.06154C13.4896 4.09744 12.7538 3.37436 11.8954 2.89231C10.9143 2.41026 9.81062 2.04872 8.70693 2.04872C7.4806 2.04872 6.37691 2.28974 5.39585 2.89231C4.41479 3.37436 3.67898 4.21795 3.06582 5.06154C2.45265 6.02564 2.20739 7.11025 2.20739 8.19487C2.20739 9.4 2.45265 10.3641 3.06582 11.3282C3.55635 12.2923 4.41479 13.0154 5.39585 13.4974C6.37691 13.9795 7.4806 14.341 8.70693 14.341C9.81062 14.341 10.9143 14.1 11.8954 13.4974Z" transform="translate(241.275 18.6794)" fill="#203353"/>
<path d="M2.69792 15.9077C1.59422 15.5462 0.613163 15.0641 0 14.4615L0.858425 12.6538C1.47159 13.2564 2.33001 13.6179 3.18844 13.9795C4.04687 14.341 5.15057 14.4615 6.13163 14.4615C7.48059 14.4615 8.46165 14.2205 9.19745 13.7385C9.81061 13.2564 10.1785 12.6538 10.1785 11.9308C10.1785 11.3282 10.0559 10.9667 9.68797 10.6051C9.32008 10.2436 8.82956 10.0026 8.33903 9.76154C7.8485 9.52051 6.99006 9.4 6.00899 9.15897C4.78267 8.91795 3.80161 8.55641 3.06582 8.31538C2.33002 8.07436 1.71685 7.59231 1.10369 6.98974C0.613156 6.38718 0.245262 5.54359 0.245262 4.57949C0.245262 3.7359 0.490534 3.01282 0.981065 2.28974C1.4716 1.56667 2.08476 1.08462 3.06582 0.602564C4.04688 0.241026 5.15058 0 6.49954 0C7.4806 0 8.46164 0.120513 9.32007 0.361539C10.3011 0.602564 11.0369 0.964103 11.7727 1.44615L11.0369 3.25385C10.3011 2.7718 9.56535 2.53077 8.82955 2.28974C8.09375 2.04872 7.23533 1.92821 6.49954 1.92821C5.15058 1.92821 4.1695 2.16923 3.55634 2.65128C2.94318 3.13333 2.57528 3.7359 2.57528 4.45897C2.57528 5.06154 2.82054 5.42308 3.18844 5.78462C3.55634 6.14615 4.04688 6.38718 4.53741 6.6282C5.15057 6.86923 5.88637 6.98974 6.7448 7.23077C7.97112 7.47179 8.95218 7.83333 9.68797 8.07436C10.4238 8.31538 11.0369 8.79744 11.6501 9.4C12.1406 10.0026 12.5085 10.8462 12.5085 11.8103C12.5085 12.6538 12.2633 13.3769 11.7727 14.1C11.2822 14.8231 10.5464 15.3051 9.68797 15.7872C8.70691 16.1487 7.60323 16.3897 6.13163 16.3897C5.02794 16.5103 3.80161 16.2692 2.69792 15.9077Z" transform="translate(263.473 18.559)" fill="#203353"/>
<path d="M0 0H2.33001V16.0282H0V0Z" transform="translate(282.234 18.7999)" fill="#203353"/>
<path d="M5.27321 8.91795L2.33001 11.9308V16.0282H0V0H2.33001V8.91795L11.1596 0H13.8575L6.86742 7.23077L14.2254 16.0282H11.5275L5.27321 8.91795Z" transform="translate(292.291 18.7999)" fill="#203353"/>
<path d="M4.1695 15.3051C2.94318 14.582 1.83948 13.6179 1.10369 12.4128C0.367891 11.2077 0 9.76154 0 8.19487C0 6.6282 0.367891 5.30256 1.10369 3.97692C1.83948 2.77179 2.82054 1.80769 4.1695 1.08461C5.39583 0.361538 6.86742 0 8.46165 0C9.68797 0 10.6691 0.241026 11.7727 0.602564C12.8764 0.964102 13.6122 1.56667 14.348 2.28974L13.6122 3.01282C12.2633 1.68718 10.669 1.08461 8.58429 1.08461C7.23533 1.08461 6.009 1.44615 4.90531 2.04872C3.80161 2.65128 2.94318 3.49487 2.33001 4.57949C1.71685 5.6641 1.34897 6.86923 1.34897 8.19487C1.34897 9.52051 1.71685 10.7256 2.33001 11.8103C2.94318 12.8949 3.80161 13.7385 4.90531 14.341C6.009 14.9436 7.23533 15.3051 8.58429 15.3051C10.5464 15.3051 12.2633 14.7026 13.6122 13.3769L14.348 14.1C13.6122 14.8231 12.7538 15.4256 11.7727 15.7872C10.7917 16.1487 9.68797 16.3897 8.46165 16.3897C6.86742 16.2692 5.39583 15.9077 4.1695 15.3051Z" transform="translate(319.637 18.6794)" fill="#203353"/>
<path d="M0 0H1.22633V14.9436H10.6691V16.0282H0.12264V0H0Z" transform="translate(340.73 18.7999)" fill="#203353"/>
<path d="M0 0H1.22633V16.0282H0V0Z" transform="translate(357.162 18.7999)" fill="#203353"/>
<path d="M13.367 0V16.0282H12.3859L1.22633 2.16923V16.1487H0V0H0.981046L12.018 13.9795V0H13.367Z" transform="translate(366.729 18.7999)" fill="#203353"/>
<path d="M0 0H1.22633V16.0282H0V0Z" transform="translate(388.557 18.7999)" fill="#203353"/>
<path d="M4.1695 15.3051C2.94318 14.582 1.83948 13.6179 1.10369 12.4128C0.367891 11.2077 0 9.76154 0 8.19487C0 6.6282 0.367891 5.30256 1.10369 3.97692C1.83948 2.77179 2.82054 1.80769 4.1695 1.08461C5.39583 0.361538 6.86742 0 8.46165 0C9.68797 0 10.6691 0.241026 11.7727 0.602564C12.7538 0.964102 13.6122 1.56667 14.348 2.28974L13.6122 3.01282C12.2633 1.68718 10.669 1.08461 8.58429 1.08461C7.23533 1.08461 6.009 1.44615 4.90531 2.04872C3.80161 2.65128 2.94318 3.49487 2.33001 4.57949C1.71685 5.6641 1.34897 6.86923 1.34897 8.19487C1.34897 9.52051 1.71685 10.7256 2.33001 11.8103C2.94318 12.8949 3.80161 13.7385 4.90531 14.341C6.009 14.9436 7.23533 15.3051 8.58429 15.3051C10.5464 15.3051 12.2633 14.7026 13.6122 13.3769L14.348 14.1C13.6122 14.8231 12.7538 15.4256 11.7727 15.7872C10.7917 16.1487 9.68797 16.3897 8.46165 16.3897C6.86742 16.2692 5.39583 15.9077 4.1695 15.3051Z" transform="translate(396.65 18.6794)" fill="#203353"/>
</svg>
