<svg width="271" height="31" viewBox="0 0 271 31" fill="none" xmlns="http://www.w3.org/2000/svg">
<path d="M9.09229 0C9.09229 0 -11.3654 14.3077 9.09229 29.4897C9.09229 29.5692 31.248 18.3615 9.09229 0Z" transform="translate(11.2422 0.715332)" fill="white"/>
<path d="M9.62393 30.9205L9.30049 30.682C2.99339 25.9923 -0.0793055 20.9051 0.00155484 15.5795C0.163275 6.75641 8.97705 0.476923 9.38135 0.238461L9.70479 0L10.0282 0.317949C17.3057 6.35897 20.7018 12.241 20.0549 17.9641C19.0846 26.0718 10.3517 30.6026 9.94737 30.841L9.62393 30.9205ZM9.62393 1.51026C7.92586 2.78205 1.29532 8.42564 1.1336 15.659C1.05274 20.5077 3.96371 25.1974 9.70479 29.5692C11.322 28.6949 18.0334 24.482 18.842 17.8051C19.408 12.6385 16.3353 7.15384 9.62393 1.51026Z" transform="translate(10.709)" fill="#1B2330"/>
<path d="M0.417259 0.0323938C0.417259 0.0323938 -4.3535 21.4939 18.3682 19.4273C18.3682 19.5068 26.2117 -0.921452 0.417259 0.0323938Z" transform="translate(0.669922 9.10864)" fill="white"/>
<path d="M16.1287 20.7802C10.6302 20.7802 6.42545 19.2699 3.6762 16.1699C-1.66058 10.2084 0.36093 0.908395 0.441791 0.51096L0.522651 0.034037H1.00781C9.49815 -0.283912 15.3201 1.62378 18.3928 5.8366C22.7592 11.7981 19.6865 19.9853 19.6057 20.3033L19.444 20.6212H19.0397C18.0693 20.7007 17.099 20.7802 16.1287 20.7802ZM1.57383 1.14686C1.25039 3.05455 0.36093 10.6058 4.64653 15.3751C7.5575 18.5545 12.2474 19.9853 18.6354 19.5084C19.1205 17.9186 20.9803 11.2417 17.5033 6.4725C14.6732 2.7366 9.33642 0.987883 1.57383 1.14686Z" transform="translate(0 8.55054)" fill="#1B2330"/>
<path d="M19.1082 0.0323938C19.1082 0.0323938 23.8789 21.4939 1.15717 19.4273C1.07631 19.5068 -6.68627 -0.921452 19.1082 0.0323938Z" transform="translate(20.4688 9.10864)" fill="white"/>
<path d="M4.60802 20.8586C3.6377 20.8586 2.66738 20.7791 1.61619 20.6996H1.21189L1.05017 20.3817C1.05017 19.9842 -2.02252 11.797 2.34393 5.83551C5.41663 1.70217 11.2386 -0.285005 19.7289 0.0329436H20.2141L20.2949 0.509867C20.3758 0.907303 22.3973 10.2868 17.0605 16.1688C14.3113 19.2688 10.1065 20.8586 4.60802 20.8586ZM2.18221 19.5868C8.57018 20.0637 13.2601 18.7124 16.171 15.4535C20.4566 10.6842 19.5672 3.13294 19.2437 1.22525C11.4811 0.98679 6.14437 2.81499 3.39512 6.55089C-0.162734 11.3201 1.61619 17.997 2.18221 19.5868Z" transform="translate(19.8496 8.47217)" fill="#1B2330"/>
<path d="M0.255559 0.0182943C0.255559 0.0182943 -2.65541 13.0542 11.1717 11.7824C11.1717 11.7824 15.8616 -0.538116 0.255559 0.0182943Z" transform="translate(9.48633 18.5022)" fill="white"/>
<path d="M10.0664 13.0643C6.67023 13.0643 4.0827 12.1104 2.30377 10.2027C-1.0115 6.5463 0.201402 0.743742 0.282263 0.505281L0.363123 0.0283573H0.848285C6.1042 -0.210104 9.74292 1.06169 11.6027 3.60528C14.352 7.34118 12.4113 12.4284 12.3304 12.5873L12.2496 12.9053H11.8453C11.2793 13.0642 10.6324 13.0643 10.0664 13.0643ZM1.41431 1.14118C1.17173 2.49246 0.848285 6.70528 3.27409 9.40784C4.97216 11.236 7.72141 12.1104 11.3601 11.7925C11.6836 10.6796 12.573 6.94374 10.6324 4.24118C9.09604 2.09502 6.02334 1.06169 1.41431 1.14118Z" transform="translate(8.81055 17.9358)" fill="#1B2330"/>
<path d="M11.5985 0.0236474C11.5985 0.0236474 14.5095 13.0595 0.682404 11.7877C0.682404 11.7877 -4.08835 -0.61225 11.5985 0.0236474Z" transform="translate(19.8926 18.4968)" fill="white"/>
<path d="M3.05055 12.9862C2.48453 12.9862 1.83765 12.9862 1.27162 12.9067H0.867322L0.705603 12.5888C0.624742 12.3503 -1.23504 7.26314 1.43335 3.60673C3.29313 0.983654 6.93185 -0.208654 12.1878 0.0298077H12.6729L12.7538 0.506731C12.8346 0.745192 14.0476 6.54776 10.7323 10.2042C9.03421 12.0324 6.44668 12.9862 3.05055 12.9862ZM1.67593 11.7939C5.3955 12.0324 8.14475 11.2375 9.76196 9.40929C12.1878 6.70673 11.7835 2.5734 11.6217 1.14263C7.09357 1.06314 3.94001 2.09647 2.40367 4.24263C0.46302 6.94519 1.35248 10.6016 1.67593 11.7939Z" transform="translate(19.3027 17.9343)" fill="#1B2330"/>
<path d="M8.65206 6.04102C8.9755 6.51795 9.21808 7.07436 9.21808 7.71025C9.21808 8.6641 8.89463 9.3 8.16689 9.85641C7.43915 10.3333 6.46883 10.5718 5.0942 10.5718H0V0H4.85162C6.06452 0 7.03485 0.238461 7.68173 0.715384C8.32861 1.19231 8.65206 1.90769 8.65206 2.70256C8.65206 3.25897 8.49034 3.7359 8.24776 4.13333C8.00517 4.61025 7.68173 4.9282 7.19657 5.08718C7.84345 5.32564 8.32862 5.5641 8.65206 6.04102ZM1.53635 1.27179V4.68974H4.6899C5.4985 4.68974 6.06452 4.53077 6.54968 4.29231C7.03485 4.05384 7.19657 3.57692 7.19657 3.02051C7.19657 2.4641 6.95399 2.06667 6.54968 1.74872C6.14538 1.43077 5.4985 1.35128 4.6899 1.35128H1.53635V1.27179ZM7.03485 8.98205C7.43915 8.6641 7.68173 8.26666 7.68173 7.63077C7.68173 6.43846 6.79227 5.88205 5.0942 5.88205H1.53635V9.37948H5.0942C5.9028 9.37948 6.54969 9.22051 7.03485 8.98205Z" transform="translate(54.293 12.3999)" fill="white"/>
<path d="M7.84345 9.3V10.6513H0V0H7.60087V1.35128H1.53635V4.61025H6.95399V5.88205H1.53635V9.3H7.84345Z" transform="translate(67.7148 12.3999)" fill="white"/>
<path d="M8.57119 7.94872H2.83011L1.61721 10.5718H0L4.85162 0H6.38796L11.2396 10.5718H9.62238L8.57119 7.94872ZM8.00517 6.75641L5.66022 1.58974L3.31527 6.75641H8.00517Z" transform="translate(78.1484 12.3999)" fill="white"/>
<path d="M3.71957 1.35128H0V0H8.89463V1.35128H5.17505V10.5718H3.63871V1.35128H3.71957Z" transform="translate(90.8418 12.3999)" fill="white"/>
<path d="M8.57119 7.94872H2.8301L1.61721 10.5718H0L4.85161 0H6.38796L11.2396 10.5718H9.62238L8.57119 7.94872ZM8.00517 6.75641L5.66021 1.58974L3.31527 6.75641H8.00517Z" transform="translate(101.031 12.3999)" fill="white"/>
<path d="M8.5712 7.94872H2.83011L1.61721 10.5718H0L4.85162 0H6.38796L11.2396 10.5718H9.62237L8.5712 7.94872ZM8.00517 6.75641L5.66022 1.58974L3.31528 6.75641H8.00517Z" transform="translate(120.115 12.3999)" fill="white"/>
<path d="M9.29893 0V10.5718H8.00518L1.53635 2.70256V10.5718H0V0H1.29377L7.76259 7.86923V0H9.29893Z" transform="translate(134.83 12.3999)" fill="white"/>
<path d="M3.71958 1.35128H0V0H8.89463V1.35128H5.25592V10.5718H3.71958V1.35128Z" transform="translate(147.607 12.3999)" fill="white"/>
<path d="M2.74926 10.0949C1.85979 9.61795 1.21291 8.98205 0.72775 8.18718C0.242588 7.39231 0 6.43846 0 5.40513C0 4.37179 0.242588 3.49743 0.72775 2.62308C1.21291 1.8282 1.94065 1.11282 2.74926 0.715384C3.63872 0.238461 4.60904 0 5.66022 0C6.7114 0 7.68173 0.238461 8.5712 0.715384C9.46066 1.19231 10.1075 1.8282 10.5927 2.62308C11.0779 3.41795 11.3204 4.37179 11.3204 5.40513C11.3204 6.43846 11.0779 7.39231 10.5927 8.18718C10.1075 8.98205 9.3798 9.61795 8.5712 10.0949C7.76259 10.5718 6.7114 10.8103 5.66022 10.8103C4.60904 10.8103 3.63872 10.5718 2.74926 10.0949ZM7.84345 8.90256C8.49033 8.58461 8.97549 8.0282 9.29893 7.47179C9.62238 6.8359 9.86495 6.2 9.86495 5.40513C9.86495 4.61025 9.70324 3.97436 9.29893 3.33846C8.89463 2.70256 8.40947 2.22564 7.84345 1.90769C7.19656 1.58974 6.46883 1.35128 5.74109 1.35128C4.93248 1.35128 4.20474 1.51026 3.55786 1.90769C2.91098 2.22564 2.42581 2.78205 2.02151 3.33846C1.61721 3.97436 1.45549 4.68974 1.45549 5.40513C1.45549 6.2 1.61721 6.8359 2.02151 7.47179C2.34495 8.10769 2.91098 8.58461 3.55786 8.90256C4.20474 9.22051 4.93248 9.45897 5.74109 9.45897C6.46883 9.45897 7.19656 9.3 7.84345 8.90256Z" transform="translate(159.088 12.3203)" fill="white"/>
<path d="M1.77892 10.4923C1.05118 10.2538 0.404302 9.9359 0 9.53846L0.56602 8.34615C0.970321 8.74359 1.53634 8.98205 2.10236 9.22051C2.66838 9.45897 3.39613 9.53846 4.04302 9.53846C4.93248 9.53846 5.57936 9.37949 6.06452 9.06154C6.46882 8.74359 6.71141 8.34615 6.71141 7.86923C6.71141 7.47179 6.63054 7.23333 6.38796 6.99487C6.14538 6.75641 5.82194 6.59744 5.4985 6.43846C5.17506 6.27949 4.60903 6.2 3.96215 6.04103C3.15355 5.88205 2.50667 5.64359 2.02151 5.48461C1.53635 5.32564 1.13204 5.00769 0.727738 4.61026C0.404297 4.21282 0.161718 3.65641 0.161718 3.02051C0.161718 2.4641 0.323444 1.98718 0.646885 1.51026C0.970326 1.03333 1.37463 0.715385 2.02151 0.397436C2.66839 0.158974 3.39614 0 4.2856 0C4.93248 0 5.57935 0.0794873 6.14538 0.238462C6.79226 0.397436 7.27742 0.635898 7.76258 0.953847L7.27743 2.14615C6.79227 1.82821 6.3071 1.66923 5.82194 1.51026C5.33678 1.35128 4.77076 1.2718 4.2856 1.2718C3.39614 1.2718 2.74925 1.43077 2.34494 1.74872C1.94064 2.06667 1.69806 2.4641 1.69806 2.94103C1.69806 3.33846 1.85978 3.57692 2.10236 3.81539C2.34494 4.05385 2.66839 4.21282 2.99183 4.37179C3.39613 4.53077 3.88129 4.61026 4.44732 4.76923C5.25592 4.9282 5.9028 5.16667 6.38796 5.32564C6.87312 5.48462 7.27743 5.80256 7.68173 6.2C8.00517 6.59744 8.24775 7.15385 8.24775 7.78974C8.24775 8.34615 8.08602 8.82308 7.76258 9.3C7.43914 9.77692 6.95398 10.0949 6.38796 10.4128C5.74108 10.6513 5.01334 10.8103 4.04302 10.8103C3.31527 10.8897 2.50667 10.7308 1.77892 10.4923Z" transform="translate(173.725 12.241)" fill="white"/>
<path d="M0 0H1.53634V10.5718H0V0Z" transform="translate(186.096 12.3999)" fill="white"/>
<path d="M3.477 5.88205L1.53634 7.86923V10.5718H0V0H1.53634V5.88205L7.35828 0H9.13722L4.52817 4.76923L9.37979 10.5718H7.60086L3.477 5.88205Z" transform="translate(192.727 12.3999)" fill="white"/>
<path d="M2.74925 10.0949C1.94064 9.61795 1.2129 8.98205 0.727738 8.18718C0.242576 7.39231 0 6.43846 0 5.40513C0 4.37179 0.242576 3.49743 0.727738 2.62308C1.2129 1.8282 1.85978 1.19231 2.74925 0.715384C3.55785 0.238461 4.52817 0 5.57936 0C6.38796 0 7.03485 0.158974 7.76259 0.397436C8.49034 0.635897 8.97548 1.03333 9.46064 1.51026L8.9755 1.98718C8.08603 1.11282 7.03485 0.715384 5.66022 0.715384C4.77076 0.715384 3.96215 0.953847 3.23441 1.35128C2.50667 1.74872 1.94064 2.30513 1.53634 3.02051C1.13204 3.7359 0.889468 4.53077 0.889468 5.40513C0.889468 6.27949 1.13204 7.07436 1.53634 7.78974C1.94064 8.50513 2.50667 9.06154 3.23441 9.45897C3.96215 9.85641 4.77076 10.0949 5.66022 10.0949C6.95399 10.0949 8.08603 9.69743 8.9755 8.82308L9.46064 9.3C8.97548 9.77692 8.40948 10.1744 7.76259 10.4128C7.11571 10.6513 6.38796 10.8103 5.57936 10.8103C4.52817 10.7308 3.55785 10.4923 2.74925 10.0949Z" transform="translate(210.758 12.3203)" fill="white"/>
<path d="M0 0H0.808603V9.85641H7.03486V10.5718H0.0808652V0H0Z" transform="translate(224.666 12.3999)" fill="white"/>
<path d="M0 0H0.808603V10.5718H0V0Z" transform="translate(235.5 12.3999)" fill="white"/>
<path d="M8.81377 0V10.5718H8.1669L0.808603 1.43077V10.6513H0V0H0.646873L7.9243 9.22051V0H8.81377Z" transform="translate(241.809 12.3999)" fill="white"/>
<path d="M0 0H0.808603V10.5718H0V0Z" transform="translate(256.201 12.3999)" fill="white"/>
<path d="M2.74925 10.0949C1.94064 9.61795 1.2129 8.98205 0.727738 8.18718C0.242576 7.39231 0 6.43846 0 5.40513C0 4.37179 0.242576 3.49743 0.727738 2.62308C1.2129 1.8282 1.85978 1.19231 2.74925 0.715384C3.55785 0.238461 4.52817 0 5.57936 0C6.38796 0 7.03485 0.158974 7.76259 0.397436C8.40948 0.635897 8.9755 1.03333 9.46067 1.51026L8.9755 1.98718C8.08604 1.11282 7.03485 0.715384 5.66022 0.715384C4.77076 0.715384 3.96215 0.953847 3.23441 1.35128C2.50667 1.74872 1.94064 2.30513 1.53634 3.02051C1.13204 3.7359 0.889468 4.53077 0.889468 5.40513C0.889468 6.27949 1.13204 7.07436 1.53634 7.78974C1.94064 8.50513 2.50667 9.06154 3.23441 9.45897C3.96215 9.85641 4.77076 10.0949 5.66022 10.0949C6.95399 10.0949 8.08604 9.69743 8.9755 8.82308L9.46067 9.3C8.9755 9.77692 8.40948 10.1744 7.76259 10.4128C7.11571 10.6513 6.38796 10.8103 5.57936 10.8103C4.52817 10.7308 3.55785 10.4923 2.74925 10.0949Z" transform="translate(261.539 12.3203)" fill="white"/>
</svg>
